<svg width="126" height="32" viewBox="0 0 126 32" fill="none" xmlns="http://www.w3.org/2000/svg">
<path d="M26.863 29.7567C26.8645 29.636 26.8898 29.5168 26.9374 29.406C26.985 29.2951 27.054 29.1947 27.1404 29.1105C27.2268 29.0263 27.329 28.96 27.4411 28.9153C27.5532 28.8706 27.673 28.8485 27.7936 28.8502C27.9128 28.8499 28.0308 28.8732 28.1409 28.9187C28.251 28.9641 28.351 29.0309 28.4352 29.1151C28.5194 29.1993 28.5862 29.2994 28.6317 29.4095C28.6771 29.5196 28.7004 29.6376 28.7001 29.7567C28.7019 29.8774 28.6798 29.9973 28.6352 30.1094C28.5906 30.2216 28.5243 30.3239 28.4401 30.4104C28.3559 30.4969 28.2554 30.5659 28.1445 30.6136C28.0336 30.6612 27.9144 30.6865 27.7936 30.688C27.5468 30.6878 27.3101 30.5896 27.1356 30.415C26.9611 30.2403 26.863 30.0036 26.863 29.7567Z" fill="white"/>
<path d="M31.5785 29.7683C31.5785 28.5077 32.5171 27.5407 33.8078 27.5407C34.173 27.5348 34.5336 27.6226 34.8552 27.7957C35.1768 27.9687 35.4487 28.2213 35.6449 28.5292L34.7994 29.0191C34.6097 28.6887 34.2423 28.493 33.8078 28.493C33.0482 28.493 32.558 29.001 32.558 29.7663C32.558 30.5317 33.0482 31.0396 33.8078 31.0396C34.2423 31.0396 34.6157 30.844 34.7994 30.5136L35.6449 31.0088C35.2775 31.612 34.5916 32 33.8078 32C32.5151 31.9967 31.5785 31.0296 31.5785 29.7683Z" fill="white"/>
<path d="M41.0636 31.238H39.4712L39.2567 31.9082H38.1859L39.6435 27.6238H40.8926L42.3502 31.9082H41.2774L41.0636 31.238ZM40.7699 30.3199L40.2677 28.7463L39.7655 30.3199H40.7699Z" fill="white"/>
<path d="M47.5176 31.9109L46.1458 29.9278V31.9109H45.1663V27.6265H46.1458V29.4869L47.4566 27.6265H48.5709L47.126 29.7134L48.6326 31.9109H47.5176Z" fill="white"/>
<path d="M54.1431 30.9686V31.9109H51.4485V27.6265H54.1123V28.5687H52.428V29.2791H53.9594V30.2093H52.428V30.9686H54.1431Z" fill="white"/>
<path d="M60.9088 30.9378L61.7543 30.4479C61.9071 30.8031 62.1706 31.0417 62.654 31.0417C63.12 31.0417 63.236 30.858 63.236 30.6932C63.236 30.4298 62.9913 30.3259 62.3483 30.1483C61.7053 29.9707 61.0865 29.6644 61.0865 28.8442C61.0865 28.0239 61.7865 27.5407 62.524 27.5407C63.228 27.5407 63.7791 27.8758 64.0915 28.5077L63.2648 28.9909C63.118 28.6853 62.9155 28.4957 62.524 28.4957C62.2176 28.4957 62.064 28.6485 62.064 28.82C62.064 29.0157 62.1686 29.1504 62.8357 29.3522C63.4854 29.5485 64.2142 29.775 64.2142 30.6804C64.2142 31.5074 63.5525 31.9966 62.6219 31.9966C61.7234 31.9966 61.1475 31.5684 60.9088 30.9378Z" fill="white"/>
<path d="M69.8804 28.5687H68.7775V31.9109H67.7979V28.5687H66.6957V27.6265H69.8804V28.5687Z" fill="white"/>
<path d="M72.7272 30.5276V27.6265H73.7067V30.4412C73.7067 30.7655 73.8603 31.0443 74.3772 31.0443C74.8941 31.0443 75.051 30.7689 75.051 30.4412V27.6265H76.0306V30.5276C76.0306 31.4458 75.3205 31.9966 74.3772 31.9966C73.4338 31.9966 72.7272 31.4458 72.7272 30.5276Z" fill="white"/>
<path d="M82.984 29.7683C82.984 30.9807 82.0836 31.9129 80.9015 31.9129H79.1871V27.6285H80.9015C82.0836 27.6265 82.984 28.5567 82.984 29.7683ZM82.0406 29.7683C82.0406 29.0311 81.5753 28.5687 80.9008 28.5687H80.1633V30.9686H80.9008C81.5753 30.9686 82.0406 30.5035 82.0406 29.7683Z" fill="white"/>
<path d="M86.964 27.6265V31.9109H85.9838V27.6265H86.964Z" fill="white"/>
<path d="M89.9643 29.7683C89.9643 29.3276 90.0951 28.8967 90.3401 28.5303C90.585 28.1638 90.9333 27.8782 91.3406 27.7096C91.748 27.5409 92.1963 27.4968 92.6288 27.5829C93.0612 27.6689 93.4585 27.8812 93.7702 28.1929C94.082 28.5046 94.2942 28.9017 94.3802 29.334C94.4661 29.7663 94.4219 30.2144 94.253 30.6215C94.0842 31.0287 93.7984 31.3767 93.4317 31.6214C93.065 31.8662 92.6339 31.9968 92.1929 31.9966C91.8996 31.9988 91.6088 31.9426 91.3374 31.8314C91.066 31.7201 90.8194 31.5561 90.612 31.3487C90.4047 31.1414 90.2406 30.8949 90.1294 30.6235C90.0182 30.3522 89.9621 30.0615 89.9643 29.7683ZM93.4427 29.7683C93.4427 29.0037 92.8916 28.495 92.1929 28.495C91.4943 28.495 90.9439 29.003 90.9439 29.7683C90.9439 30.5337 91.495 31.0417 92.1929 31.0417C92.8909 31.0417 93.4427 30.5337 93.4427 29.7683Z" fill="white"/>
<path d="M97.2999 29.7567C97.3014 29.636 97.3267 29.5168 97.3743 29.406C97.4219 29.2951 97.4908 29.1947 97.5773 29.1105C97.6637 29.0263 97.7659 28.96 97.878 28.9153C97.9901 28.8706 98.1099 28.8485 98.2305 28.8502C98.3497 28.8499 98.4676 28.8732 98.5777 28.9187C98.6878 28.9641 98.7879 29.0309 98.8721 29.1151C98.9563 29.1993 99.0231 29.2994 99.0686 29.4095C99.114 29.5196 99.1373 29.6376 99.137 29.7567C99.1388 29.8774 99.1167 29.9973 99.0721 30.1094C99.0275 30.2216 98.9612 30.3239 98.877 30.4104C98.7928 30.4969 98.6923 30.5659 98.5814 30.6136C98.4705 30.6612 98.3513 30.6865 98.2305 30.688C98.1083 30.688 97.9872 30.6639 97.8743 30.6171C97.7613 30.5702 97.6587 30.5016 97.5723 30.4151C97.4858 30.3287 97.4173 30.226 97.3706 30.113C97.3238 30 97.2998 29.8789 97.2999 29.7567Z" fill="white"/>
<path d="M123.269 4.03845H123.609V2.87786H123.992V2.55067H122.886V2.87786H123.269V4.03845Z" fill="white"/>
<path d="M124.481 3.17354L124.866 3.80445H124.904L125.289 3.17354V4.03845H125.629V2.55067H125.289L124.885 3.21176L124.481 2.55067H124.141V4.03845H124.481V3.17354Z" fill="white"/>
<path d="M75.9052 4.01299C74.8631 4.01285 73.8444 4.32161 72.9779 4.90022C72.1114 5.47883 71.436 6.30129 71.0372 7.26359C70.6383 8.22589 70.5339 9.28481 70.7372 10.3064C70.9405 11.328 71.4422 12.2664 72.1791 13.003C72.916 13.7395 73.8548 14.2411 74.8769 14.4442C75.8989 14.6474 76.9583 14.5431 77.921 14.1444C78.8838 13.7457 79.7066 13.0706 80.2855 12.2045C80.8643 11.3384 81.1732 10.3201 81.1731 9.27852C81.1715 7.8825 80.616 6.54412 79.6284 5.55699C78.6408 4.56986 77.3018 4.01458 75.9052 4.01299ZM75.9052 12.624C75.2432 12.6241 74.596 12.4281 74.0455 12.0605C73.495 11.693 73.0659 11.1705 72.8125 10.5592C72.5591 9.94795 72.4927 9.27526 72.6218 8.62626C72.7509 7.97725 73.0696 7.38108 73.5376 6.91314C74.0057 6.44519 74.6021 6.1265 75.2513 5.99736C75.9006 5.86822 76.5736 5.93443 77.1852 6.18762C77.7968 6.44081 78.3196 6.86962 78.6874 7.41979C79.0552 7.96997 79.2515 8.61682 79.2515 9.27852C79.2501 10.1653 78.8971 11.0153 78.2699 11.6423C77.6427 12.2694 76.7923 12.6224 75.9052 12.624Z" fill="white"/>
<path d="M108.564 4.01299C107.522 4.01285 106.503 4.32161 105.636 4.90022C104.77 5.47883 104.095 6.30129 103.696 7.26359C103.297 8.22589 103.192 9.28481 103.396 10.3064C103.599 11.328 104.101 12.2664 104.838 13.003C105.575 13.7395 106.513 14.2411 107.535 14.4442C108.557 14.6474 109.617 14.5431 110.58 14.1444C111.542 13.7457 112.365 13.0706 112.944 12.2045C113.523 11.3384 113.832 10.3201 113.832 9.27852C113.83 7.8825 113.275 6.54412 112.287 5.55699C111.299 4.56986 109.96 4.01458 108.564 4.01299ZM108.564 12.624C107.902 12.6241 107.255 12.4281 106.704 12.0605C106.154 11.693 105.725 11.1705 105.471 10.5592C105.218 9.94795 105.151 9.27526 105.28 8.62626C105.409 7.97725 105.728 7.38108 106.196 6.91314C106.664 6.44519 107.261 6.1265 107.91 5.99736C108.559 5.86822 109.232 5.93443 109.844 6.18762C110.455 6.44081 110.978 6.86962 111.346 7.41979C111.714 7.96997 111.91 8.61682 111.91 9.27852C111.909 10.1653 111.556 11.0153 110.928 11.6423C110.301 12.2694 109.451 12.6224 108.564 12.624Z" fill="white"/>
<path d="M94.0441 5.95849H100.786L94.0441 13.0898V14.467H102.684V12.5463H97.2013L102.684 6.74728V4.03778H94.0441V5.95849Z" fill="white"/>
<path d="M23.1479 12.5791C23.0604 12.6094 22.9684 12.6248 22.8757 12.6247C22.6524 12.6245 22.4384 12.5358 22.2805 12.378C22.1226 12.2201 22.0338 12.0061 22.0336 11.783V4.01299H20.1121V5.21528C19.3274 4.56867 18.3723 4.16286 17.362 4.04684C16.3516 3.93082 15.3293 4.10954 14.4184 4.56144C13.5075 5.01334 12.7469 5.7191 12.2283 6.59355C11.7098 7.46799 11.4556 8.47375 11.4963 9.48943C11.537 10.5051 11.8709 11.4873 12.4578 12.3175C13.0446 13.1477 13.8593 13.7904 14.8034 14.168C15.7476 14.5456 16.7809 14.642 17.7787 14.4456C18.7765 14.2491 19.6961 13.7683 20.4265 13.061C20.7077 13.5981 21.1576 14.0279 21.7072 14.2844C22.2567 14.5409 22.8753 14.6097 23.4678 14.4804L23.1553 12.5939L23.1479 12.5791ZM16.7651 12.6254C16.1031 12.6254 15.456 12.4292 14.9056 12.0616C14.3552 11.6939 13.9262 11.1714 13.6729 10.5601C13.4195 9.94883 13.3533 9.27616 13.4824 8.6272C13.6115 7.97823 13.9303 7.38213 14.3984 6.91425C14.8665 6.44637 15.4629 6.12775 16.1121 5.99866C16.7614 5.86957 17.4343 5.93583 18.0459 6.18904C18.6575 6.44225 19.1802 6.87105 19.548 7.42121C19.9158 7.97138 20.1121 8.6182 20.1121 9.27987C20.1103 10.1665 19.757 11.0163 19.1297 11.6431C18.5024 12.2699 17.6521 12.6226 16.7651 12.624V12.6254Z" fill="white"/>
<path d="M27.7809 3.07475V0.00938416H25.8593V4.03778H23.8667V5.9605H25.8593V12.2755C25.8592 12.683 25.969 13.0829 26.177 13.4334C26.385 13.7838 26.6836 14.0717 27.0415 14.2669C27.3993 14.462 27.8032 14.5572 28.2105 14.5424C28.6179 14.5276 29.0138 14.4034 29.3565 14.1828L28.3629 12.5329C28.3129 12.5782 28.2509 12.6081 28.1843 12.6188C28.1177 12.6296 28.0494 12.6207 27.9878 12.5934C27.9261 12.566 27.8737 12.5214 27.837 12.4648C27.8003 12.4083 27.7808 12.3423 27.7809 12.2749V5.9605H29.7735V4.03778H27.7809V3.07475Z" fill="white"/>
<path d="M31.669 0.00134277C31.6073 0.00134277 31.5456 0.00134245 31.4846 0.00938808H31.8561C31.7944 0.00402432 31.732 0.00134277 31.669 0.00134277Z" fill="white"/>
<path d="M40.7578 10.7026V8.40529C40.7588 7.61182 40.5434 6.83309 40.1348 6.15281C39.7262 5.47254 39.1398 4.91644 38.4387 4.5443C37.7376 4.17216 36.9483 3.99806 36.1556 4.04071C35.363 4.08336 34.5969 4.34115 33.9398 4.78636V0.00938416H32.0176V12.2065V14.475H33.9391V8.40529C33.9602 7.77055 34.2272 7.16884 34.6839 6.72726C35.1405 6.28568 35.751 6.03881 36.3864 6.03881C37.0217 6.03881 37.6322 6.28568 38.0889 6.72726C38.5455 7.16884 38.8125 7.77055 38.8336 8.40529V9.95741V14.475H40.7551L40.7578 10.7026Z" fill="white"/>
<path d="M91.4883 14.2331V8.4026C91.4889 7.5701 91.2513 6.75481 90.8035 6.05289C90.3557 5.35096 89.7164 4.79167 88.961 4.441C88.2056 4.09032 87.3657 3.96288 86.5402 4.0737C85.7148 4.18453 84.9383 4.529 84.3022 5.06649C83.9754 4.56404 83.4627 4.21145 82.8764 4.08586C82.2902 3.96027 81.678 4.07189 81.1738 4.39632L82.1688 6.04896C82.2325 5.99064 82.3158 5.95835 82.4021 5.95849C82.4479 5.95849 82.4932 5.9675 82.5355 5.98501C82.5778 6.00253 82.6163 6.02819 82.6487 6.06055C82.681 6.09291 82.7067 6.13133 82.7242 6.17361C82.7418 6.21589 82.7508 6.26121 82.7508 6.30697V14.475H84.6723V8.40528C84.6873 7.76644 84.9517 7.1588 85.409 6.71227C85.8663 6.26574 86.4802 6.01575 87.1195 6.01575C87.7588 6.01575 88.3728 6.26574 88.8301 6.71227C89.2874 7.1588 89.5518 7.76644 89.5668 8.40528V9.9574V14.475H91.4883V14.2331Z" fill="white"/>
<path d="M124.147 14.2331V8.4026C124.147 7.5701 123.91 6.75481 123.462 6.05289C123.014 5.35096 122.375 4.79167 121.62 4.441C120.864 4.09032 120.024 3.96288 119.199 4.0737C118.373 4.18453 117.597 4.529 116.961 5.06649C116.634 4.56404 116.121 4.21145 115.535 4.08586C114.949 3.96027 114.337 4.07189 113.832 4.39632L114.826 6.04695C114.89 5.98863 114.973 5.95634 115.059 5.95647C115.152 5.95665 115.24 5.99343 115.306 6.05874C115.371 6.12406 115.408 6.21259 115.408 6.30496V14.475H117.33V8.40528C117.345 7.76644 117.609 7.1588 118.066 6.71227C118.524 6.26574 119.137 6.01575 119.777 6.01575C120.416 6.01575 121.03 6.26574 121.487 6.71227C121.945 7.1588 122.209 7.76644 122.224 8.40528V9.9574V14.475H124.146L124.147 14.2331Z" fill="white"/>
<path d="M63.2621 4.05655L59.2125 0.00938416H57.4619V1.11383V1.91803V3.35756V3.97345V14.475H59.3835V3.35756V2.89648L63.2621 6.77275L67.1401 2.89648V3.35756V14.475H69.0617V3.35756V1.91803V1.11383V0.00938416H67.3111L63.2621 4.05655Z" fill="white"/>
<path d="M7.57499 5.92163L9.08757 3.42591C9.6588 2.48365 10.6296 1.92071 11.6836 1.92071H11.8801V0H11.6836C10.831 0.000719964 9.99345 0.22486 9.25451 0.650067C8.51091 1.08086 7.88822 1.69244 7.44424 2.42803L5.93166 4.92643C5.40803 5.78961 4.51966 6.30497 3.55552 6.30497H2.29303V2.27054V0H0.37146V14.5427H2.29303V8.223H3.55552C4.51966 8.223 5.40803 8.73836 5.93166 9.60154L7.44491 12.0973C7.88889 12.8329 8.51158 13.4444 9.25518 13.8752C9.99392 14.3018 10.8318 14.5269 11.685 14.528H11.8814V12.6099H11.685C10.631 12.6099 9.66015 12.047 9.08891 11.1047L7.57566 8.60902C7.26006 8.09126 6.85081 7.63674 6.36881 7.26868C6.85135 6.89874 7.26044 6.44187 7.57499 5.92163Z" fill="white"/>
<path d="M52.0184 15.3416V6.2795V4.01299H50.0968V10.0827C50.0758 10.7175 49.8087 11.3192 49.3521 11.7608C48.8954 12.2023 48.2849 12.4492 47.6496 12.4492C47.0142 12.4492 46.4037 12.2023 45.9471 11.7608C45.4904 11.3192 45.2234 10.7175 45.2024 10.0827V8.53061V4.01299H43.2815V10.0827C43.2805 10.8762 43.4959 11.6549 43.9045 12.3352C44.3131 13.0155 44.8995 13.5716 45.6006 13.9437C46.3017 14.3159 47.091 14.49 47.8837 14.4473C48.6763 14.4047 49.4424 14.1469 50.0995 13.7016V15.3442V16.454C50.0988 17.1028 49.8406 17.7247 49.3817 18.1834C48.9228 18.6421 48.3006 18.9001 47.6516 18.9008C47.0026 18.9001 46.3804 18.6421 45.9215 18.1834C45.4625 17.7247 45.2044 17.1028 45.2037 16.454V15.3999H43.2815V16.4514C43.2743 17.0295 43.382 17.6033 43.5984 18.1395C43.8148 18.6757 44.1355 19.1637 44.542 19.575C44.9485 19.9864 45.4327 20.313 45.9664 20.5359C46.5001 20.7589 47.0728 20.8736 47.6512 20.8736C48.2297 20.8736 48.8024 20.7589 49.3361 20.5359C49.8698 20.313 50.354 19.9864 50.7605 19.575C51.167 19.1637 51.4877 18.6757 51.7041 18.1395C51.9205 17.6033 52.0282 17.0295 52.021 16.4514V15.3422L52.0184 15.3416Z" fill="white"/>
</svg>
